<svg width="128" height="128" viewBox="0 0 128 128" fill="currentColor" stroke="#4b5563" strokeWidth="2" xmlns="http://www.w3.org/2000/svg">
<path d="M62.8321 41.1682C62.4601 40.7963 62.0186 40.5013 61.5327 40.3C61.0468 40.0987 60.526 39.9951 60 39.9951C59.4741 39.9951 58.9533 40.0987 58.4674 40.3C57.9815 40.5013 57.54 40.7963 57.168 41.1682C56.7961 41.5401 56.5011 41.9816 56.2999 42.4675C56.0986 42.9534 55.995 43.4742 55.995 44.0002C55.995 44.5261 56.0986 45.0469 56.2999 45.5328C56.5011 46.0188 56.7961 46.4603 57.168 46.8322L66.3441 56.0002L57.168 65.1682C56.7961 65.5401 56.5011 65.9816 56.2999 66.4675C56.0986 66.9534 55.995 67.4742 55.995 68.0002C55.995 68.5261 56.0986 69.0469 56.2999 69.5328C56.5011 70.0188 56.7961 70.4603 57.168 70.8322C57.54 71.2041 57.9815 71.4991 58.4674 71.7004C58.9533 71.9016 59.4741 72.0052 60 72.0052C60.526 72.0052 61.0468 71.9016 61.5327 71.7004C62.0186 71.4991 62.4601 71.2041 62.8321 70.8322L72 61.6562L81.168 70.8322C81.9191 71.5833 82.9378 72.0052 84 72.0052C85.0623 72.0052 86.081 71.5833 86.8321 70.8322C87.5831 70.0811 88.0051 69.0624 88.0051 68.0002C88.0051 66.938 87.5831 65.9193 86.8321 65.1682L77.656 56.0002L86.8321 46.8322C87.5831 46.0811 88.0051 45.0624 88.0051 44.0002C88.0051 42.938 87.5831 41.9193 86.8321 41.1682C86.081 40.4171 85.0623 39.9951 84 39.9951C82.9378 39.9951 81.9191 40.4171 81.168 41.1682L72 50.3442L62.8321 41.1682Z" strokeLinecap="round" strokeLinejoin="round"  />
<path d="M8 4C6.93913 4 5.92172 4.42143 5.17157 5.17157C4.42143 5.92172 4 6.93913 4 8C4 9.06087 4.42143 10.0783 5.17157 10.8284C5.92172 11.5786 6.93913 12 8 12H16.88L20.088 24.856L32.072 88.736C32.2436 89.6526 32.73 90.4805 33.4473 91.0765C34.1645 91.6725 35.0675 91.9991 36 92H44C39.7565 92 35.6869 93.6857 32.6863 96.6863C29.6857 99.6869 28 103.757 28 108C28 112.243 29.6857 116.313 32.6863 119.314C35.6869 122.314 39.7565 124 44 124C48.2435 124 52.3131 122.314 55.3137 119.314C58.3143 116.313 60 112.243 60 108C60 103.757 58.3143 99.6869 55.3137 96.6863C52.3131 93.6857 48.2435 92 44 92H100C95.7565 92 91.6869 93.6857 88.6863 96.6863C85.6857 99.6869 84 103.757 84 108C84 112.243 85.6857 116.313 88.6863 119.314C91.6869 122.314 95.7565 124 100 124C104.243 124 108.313 122.314 111.314 119.314C114.314 116.313 116 112.243 116 108C116 103.757 114.314 99.6869 111.314 96.6863C108.313 93.6857 104.243 92 100 92H108C108.933 91.9991 109.835 91.6725 110.553 91.0765C111.27 90.4805 111.756 89.6526 111.928 88.736L123.928 24.736C124.036 24.1587 124.016 23.5647 123.868 22.9961C123.721 22.4276 123.45 21.8985 123.075 21.4464C122.7 20.9944 122.23 20.6304 121.699 20.3804C121.167 20.1304 120.587 20.0005 120 20H27.12L23.88 7.032C23.6641 6.16627 23.1649 5.39759 22.4618 4.8482C21.7588 4.29881 20.8922 4.00025 20 4H8ZM39.32 84L28.816 28H115.184L104.68 84H39.32V84ZM52 108C52 110.122 51.1571 112.157 49.6569 113.657C48.1566 115.157 46.1217 116 44 116C41.8783 116 39.8434 115.157 38.3431 113.657C36.8429 112.157 36 110.122 36 108C36 105.878 36.8429 103.843 38.3431 102.343C39.8434 100.843 41.8783 100 44 100C46.1217 100 48.1566 100.843 49.6569 102.343C51.1571 103.843 52 105.878 52 108V108ZM108 108C108 110.122 107.157 112.157 105.657 113.657C104.157 115.157 102.122 116 100 116C97.8783 116 95.8434 115.157 94.3431 113.657C92.8429 112.157 92 110.122 92 108C92 105.878 92.8429 103.843 94.3431 102.343C95.8434 100.843 97.8783 100 100 100C102.122 100 104.157 100.843 105.657 102.343C107.157 103.843 108 105.878 108 108V108Z" strokeLinecap="round" strokeLinejoin="round" strokeWidth="2"/>
</svg>
