<svg width="128" height="128" viewBox="0 0 128 128" fill="currentColor" xmlns="http://www.w3.org/2000/svg">
<path d="M94.5067 113.778H30.5067C29.5637 113.778 28.6593 114.152 27.9925 114.819C27.3257 115.486 26.9511 116.39 26.9511 117.333C26.9511 118.276 27.3257 119.181 27.9925 119.848C28.6593 120.514 29.5637 120.889 30.5067 120.889H94.5067C95.4497 120.889 96.354 120.514 97.0208 119.848C97.6876 119.181 98.0622 118.276 98.0622 117.333C98.0622 116.39 97.6876 115.486 97.0208 114.819C96.354 114.152 95.4497 113.778 94.5067 113.778V113.778Z" />
<path d="M112.818 54.7556H105.707V56.9245C105.704 61.1669 105.069 65.3851 103.822 69.4401C97.8565 69.892 91.8568 69.4 86.0444 67.9823C86.041 66.4921 85.6356 65.0304 84.8711 63.7512C87.0255 60.9219 88.9516 57.9258 90.6311 54.7912H84.7289C83.6415 56.6781 82.4546 58.5058 81.1733 60.2668C79.6231 59.6103 77.907 59.4526 76.2631 59.8158C74.6193 60.179 73.1293 61.0449 72 62.2934C70.7555 61.5823 69.5111 60.8712 68.4444 60.0534C61.2668 55.2644 55.2727 48.9055 50.9155 41.4579C51.6197 40.5847 52.1324 39.5731 52.4203 38.4889C52.7082 37.4047 52.7649 36.2721 52.5866 35.1645C58.0606 33.308 63.7715 32.2424 69.5466 32.0001L72.64 26.6312C64.9171 26.4797 57.2274 27.6831 49.92 30.1868C48.8005 29.0959 47.3953 28.344 45.8666 28.0179H44.9778C44.5511 26.5245 44.16 25.0312 43.84 23.5023C43.52 21.9734 43.3422 20.6223 43.1644 19.1645C48.5129 16.3148 54.412 14.6494 60.4611 14.2813C66.5102 13.9132 72.5676 14.8511 78.2222 17.0312L81.7778 10.6668C74.2155 7.60766 66.0173 6.45399 57.9045 7.30723C49.7917 8.16048 42.0129 10.9945 35.2525 15.5599C28.4921 20.1254 22.9574 26.2823 19.1353 33.489C15.3131 40.6958 13.3207 48.7314 13.3333 56.889C13.3333 58.489 13.3333 60.0534 13.5822 61.6179C14.7668 74.3771 20.8263 86.188 30.4994 94.5923C40.1725 102.997 52.714 107.347 65.5136 106.738C78.3132 106.128 90.3849 100.606 99.2159 91.3212C108.047 82.0361 112.957 69.703 112.924 56.889C112.924 56.1779 112.853 55.4668 112.818 54.7556ZM38.1511 22.2934C38.1511 23.0401 38.3644 23.8223 38.5066 24.569C38.8266 26.1334 39.2533 27.6623 39.68 29.1912C38.3184 29.9974 37.2226 31.1845 36.5276 32.6061C35.8326 34.0277 35.5689 35.6215 35.7689 37.1912C30.1817 40.8621 25.1929 45.3712 20.9778 50.5601C21.8279 44.9344 23.7946 39.5355 26.7622 34.6811C29.7298 29.8267 33.6383 25.6149 38.2578 22.2934H38.1511ZM38.1511 78.1512C36.7763 78.6276 35.5505 79.4561 34.596 80.5541C33.6414 81.6522 32.9915 82.9813 32.7111 84.409H30.4355C24.6936 77.5604 21.2594 69.0745 20.6222 60.1601L21.0133 59.4845C25.4656 52.5809 31.2862 46.6635 38.1155 42.0979C39.1394 43.1672 40.4334 43.9399 41.8604 44.3342C43.2874 44.7285 44.7945 44.7298 46.2222 44.3379C50.978 52.3746 57.4788 59.24 65.2444 64.4268C66.7022 65.3868 68.1955 66.2756 69.6889 67.129C69.5694 68.4889 69.7893 69.8572 70.3289 71.1112C63.8221 76.2782 56.3166 80.043 48.2844 82.169C47.353 80.4286 45.8331 79.0762 43.9963 78.3532C42.1596 77.6302 40.1256 77.5838 38.2578 78.2223L38.1511 78.1512ZM63.04 99.4845C55.8088 99.4865 48.6974 97.6383 42.3822 94.1156L43.3778 93.9023C44.7926 93.4381 46.057 92.6026 47.0389 91.4831C48.0207 90.3637 48.6842 89.0012 48.96 87.5379C58.0515 85.2194 66.5391 80.9756 73.8489 75.0934C75.5852 76.1082 77.6356 76.4444 79.6051 76.0374C81.5745 75.6304 83.3237 74.5089 84.5155 72.889C89.532 74.1931 94.6924 74.8621 99.8755 74.8801H101.76C98.3349 82.2454 92.8785 88.48 86.0321 92.8511C79.1857 97.2222 71.2339 99.5482 63.1111 99.5556L63.04 99.4845Z" />
<path d="M95.4667 4.05338L75.1289 39.1112C74.6557 39.8057 74.3841 40.6176 74.3441 41.457C74.3041 42.2964 74.4973 43.1305 74.9023 43.8669C75.3073 44.6032 75.9082 45.2131 76.6386 45.6288C77.3689 46.0445 78.2001 46.25 79.04 46.2223H119.751C120.591 46.25 121.422 46.0445 122.153 45.6288C122.883 45.2131 123.484 44.6032 123.889 43.8669C124.294 43.1305 124.487 42.2964 124.447 41.457C124.407 40.6176 124.135 39.8057 123.662 39.1112L103.324 4.05338C102.923 3.36735 102.35 2.7983 101.66 2.40285C100.971 2.00739 100.19 1.79932 99.3955 1.79932C98.6009 1.79932 97.8201 2.00739 97.1308 2.40285C96.4415 2.7983 95.8677 3.36735 95.4667 4.05338V4.05338Z" fill="#f59e0b"/>
</svg>
